 <svg
        width="1em"
        height="1em"
        viewBox="0 0 24 24"
        fill="currentColor"
        xmlns="http://www.w3.org/2000/svg"
      >
        <path
          fillRule="evenodd"
          clipRule="evenodd"
          d="M16.6024 2.00039C16.6024 1.66902 16.3338 1.40039 16.0024 1.40039C15.671 1.40039 15.4024 1.66902 15.4024 2.00039V3.40039H8.60234V2.00039C8.60234 1.66902 8.33371 1.40039 8.00234 1.40039C7.67097 1.40039 7.40234 1.66902 7.40234 2.00039V3.40039H5.00234C3.5664 3.40039 2.40234 4.56445 2.40234 6.00039V10.0004V20.0004C2.40234 21.4363 3.5664 22.6004 5.00234 22.6004H19.0024C20.4383 22.6004 21.6024 21.4363 21.6024 20.0004V10.0004V6.00039C21.6024 4.56445 20.4383 3.40039 19.0024 3.40039H16.6024V2.00039ZM20.4024 9.40039V6.00039C20.4024 5.22719 19.7756 4.60039 19.0024 4.60039H16.6024V6.00039C16.6024 6.33176 16.3338 6.60039 16.0024 6.60039C15.671 6.60039 15.4024 6.33176 15.4024 6.00039V4.60039H8.60234V6.00039C8.60234 6.33176 8.33371 6.60039 8.00234 6.60039C7.67097 6.60039 7.40234 6.33176 7.40234 6.00039V4.60039H5.00234C4.22914 4.60039 3.60234 5.22719 3.60234 6.00039V9.40039H20.4024ZM3.60234 10.6004H20.4024V20.0004C20.4024 20.7736 19.7756 21.4004 19.0024 21.4004H5.00234C4.22914 21.4004 3.60234 20.7736 3.60234 20.0004V10.6004Z"
        />
      </svg>