 <svg
        width="1em"
        height="1em"
        viewBox="0 0 24 24"
        fill="currentColor"
        xmlns="http://www.w3.org/2000/svg"
      >
        <path d="M17.7487 5.22628L12.0027 10.9723L6.25662 5.22628C6.11842 5.09981 5.93675 5.03154 5.74946 5.03569C5.56218 5.03984 5.38371 5.11609 5.25125 5.24855C5.11879 5.38102 5.04254 5.55948 5.03839 5.74677C5.03424 5.93405 5.10251 6.11572 5.22897 6.25392L10.9721 12L5.22752 17.7446C5.15733 17.8115 5.10123 17.8917 5.0625 17.9806C5.02378 18.0695 5.00321 18.1652 5.00201 18.2621C5.00081 18.3591 5.019 18.4553 5.05551 18.5451C5.09203 18.6349 5.14613 18.7165 5.21463 18.7851C5.28313 18.8537 5.36466 18.9079 5.45442 18.9446C5.54418 18.9812 5.64036 18.9995 5.7373 18.9985C5.83424 18.9974 5.92999 18.977 6.01893 18.9384C6.10786 18.8998 6.18818 18.8438 6.25516 18.7737L12.0027 13.0291L17.7487 18.7751C17.8869 18.9016 18.0686 18.9699 18.2559 18.9657C18.4432 18.9616 18.6216 18.8853 18.7541 18.7529C18.8866 18.6204 18.9628 18.4419 18.967 18.2547C18.9711 18.0674 18.9029 17.8857 18.7764 17.7475L13.0303 12.0014L18.7764 6.25392C18.8466 6.18704 18.9027 6.1068 18.9414 6.01792C18.9801 5.92904 19.0007 5.83332 19.0019 5.73638C19.0031 5.63943 18.9849 5.54323 18.9484 5.45342C18.9119 5.36361 18.8578 5.28201 18.7893 5.21341C18.7208 5.1448 18.6392 5.09059 18.5495 5.05395C18.4597 5.01731 18.3636 4.99898 18.2666 5.00004C18.1697 5.00111 18.0739 5.02154 17.985 5.06014C17.896 5.09874 17.8157 5.15473 17.7487 5.22482V5.22628Z" />
      </svg>