 <svg
        width="1em"
        height="1em"
        viewBox="0 0 24 24"
        fill="currentColor"
        xmlns="http://www.w3.org/2000/svg"
      >
        <path d="M21.9441 2.85827C21.844 2.63953 21.6304 2.5 21.3958 2.5H2.60815C2.37352 2.5 2.15999 2.63953 2.05986 2.85827C1.9598 3.07701 1.99116 3.33557 2.14043 3.52216L9.36268 12.5504V20.8753C9.36268 21.0914 9.47106 21.2922 9.64919 21.4061C9.74682 21.4685 9.85763 21.5 9.96884 21.5C10.0607 21.5 10.1529 21.4784 10.238 21.435L14.2958 19.3621C14.502 19.2569 14.6324 19.0404 14.6328 18.8032L14.6407 12.5506L21.8633 3.52207C22.0127 3.33557 22.0441 3.07693 21.9441 2.85827ZM13.5672 11.9286C13.4779 12.0402 13.4289 12.1804 13.4288 12.3252L13.421 18.4145L10.5751 19.8683V12.326C10.5751 12.181 10.5262 12.0404 10.4366 11.9286L3.89352 3.7494H20.1103L13.5672 11.9286Z" />
      </svg>