<svg width="1em" height="1em" viewBox="0 0 24 24" fill="none" xmlns="http://www.w3.org/2000/svg">
<path d="M3.075 13.0002V12.9252H3H1.25006C0.602455 12.9252 0.075 12.3978 0.075 11.7502C0.075 11.4396 0.201895 11.1348 0.422546 10.9139L11.533 0.262738L11.533 0.26273C11.794 0.0124232 12.2062 0.0124232 12.4672 0.26273L12.4672 0.262742L23.566 10.9011C23.5662 10.9014 23.5664 10.9016 23.5666 10.9018C23.7986 11.1351 23.925 11.4401 23.925 11.7502C23.925 12.3978 23.3977 12.9252 22.7501 12.9252H21H20.925V13.0002V22.2499C20.925 23.1736 20.1736 23.925 19.2501 23.925H15.2501C14.8775 23.925 14.5751 23.6226 14.5751 23.25V16.7501C14.5751 16.5706 14.4294 16.4252 14.25 16.4252H9.75C9.57074 16.4252 9.42506 16.5706 9.42506 16.7501V23.25C9.42506 23.6226 9.12264 23.925 8.75006 23.925H4.75012C3.82657 23.925 3.075 23.1736 3.075 22.2499V13.0002ZM15.9251 22.5V22.575H16.0001H19.2501C19.4276 22.575 19.575 22.4273 19.575 22.2499V12.2502C19.575 11.8777 19.8774 11.5752 20.25 11.5752H22.131H22.3177L22.1829 11.4461L12.0519 1.73535L12 1.6856L11.9481 1.73535L1.81724 11.4461L1.68251 11.5752H1.86914H3.75C4.12258 11.5752 4.425 11.8777 4.425 12.2502V22.2499C4.425 22.4274 4.57266 22.575 4.75012 22.575H8.00006H8.07506V22.5V16.7501C8.07506 15.8266 8.82645 15.0752 9.75 15.0752H14.25C15.1737 15.0752 15.9251 15.8266 15.9251 16.7501V22.5Z" fill="currentColor" />
</svg>
