<svg width="249" height="65" fill="none" xmlns="http://www.w3.org/2000/svg">
    <g clip-path="url(#prefix__clip0_91_19735)">
        <path
            d="M57.818 63.815c-9.82 0-18.27-2.971-24.456-8.582a28.233 28.233 0 01-6.664-9.018 27.962 27.962 0 01-2.616-10.91c-2.304-8.165-1.266-15.584 3.114-22.046C30.497 8.376 37.556 2.558 47.417.875a56.971 56.971 0 019.591-.873c5.668 0 15.488 1.184 21.591 8.644 3.53.457 6.312.935 7.474 1.205 4.443 1.08 7.266 4.177 7.557 8.25.332 4.862-3.53 9.87-7.017 12.987.851 8.81-1.038 16.52-5.46 21.963-5.647 6.94-13.93 10.764-23.335 10.764z"
            fill="#00F34D" />
        <path
            d="M30.206 34.328c-.623-2.12-3.197-9.787 2.097-17.62 2.678-3.97 8.429-8.437 16.172-9.767 25.39-4.322 28.276 10.597 28.276 12.01L30.206 34.328z"
            fill="#00C349" />
        <path
            d="M30.206 35.887c-.249 0-.498-.062-.726-.187-.374-.187-.644-.54-.768-.935l-.063-.228c-.789-2.598-3.155-10.535 2.367-18.68 2.761-4.094 8.74-8.978 17.19-10.432 11.023-1.87 19.37-.499 24.808 4.093 4.402 3.72 5.294 8.395 5.294 9.434 0 .665-.436 1.268-1.058 1.475L30.725 35.804c-.187.042-.353.083-.519.083zm26.74-28.156c-2.533 0-5.294.25-8.242.748-7.495 1.289-12.83 5.715-15.135 9.102-3.986 5.901-3.093 11.76-2.325 14.753l43.722-14.442c-.415-1.475-1.557-4.03-4.152-6.171-3.239-2.639-7.972-3.99-13.868-3.99z"
            fill="#000" />
        <path
            d="M30.373 31.21c.498-4.051 4.816-6.316 8.242-7.563 5.294-1.953 11.21-3.969 16.816-3.99 5.543-.04 11.19.873 16.546 2.411 7.246 2.099 7.972 5.964 7.972 5.964.665 3.574 2.222 14.005-3.57 21.132-4.132 5.091-10.485 8.499-18.56 8.499-18.913 0-29.086-12.717-27.446-26.452z"
            fill="#fff" />
        <path
            d="M57.819 59.222c-9.675 0-17.938-3.283-23.231-9.268-4.568-5.153-6.623-11.864-5.772-18.909.457-3.782 3.571-6.753 9.239-8.83 5.584-2.058 11.522-4.074 17.335-4.094 5.501-.042 11.21.79 17.023 2.452 7.952 2.285 8.969 6.69 9.073 7.168.996 5.34 1.827 15.336-3.903 22.38-4.754 5.88-11.772 9.1-19.764 9.1zm-2.097-38.005h-.27c-5.335.02-10.962 1.953-16.297 3.906-4.484 1.663-6.934 3.782-7.225 6.296-.747 6.151 1.038 12.01 5.004 16.478 4.691 5.299 12.103 8.208 20.885 8.208 7.037 0 13.203-2.805 17.355-7.917 4.92-6.067 4.153-15.002 3.26-19.823-.042-.166-.955-3.075-6.872-4.78-5.44-1.579-10.754-2.368-15.84-2.368zm22.712 7.106V28.324z"
            fill="#000" />
        <path
            d="M80.01 28.386c1.931-.769 12.457-10.618 4.589-12.53-3.571-.873-38.802-6.13-45.32 1.933-1.91 2.39-5.689 7.044-6.997 9.85 13.889-4.53 24.435-7.378 39.466-3.907 4.048.914 6.56 2.555 8.263 4.654z"
            fill="#F92F00" />
        <path
            d="M45.133 42.266c2.803 3.075 6.81 4.862 10.837 5.59 1.972.353 3.986.477 5.98.374a19.528 19.528 0 005.355-.998c1.578-.54 3.177-1.33 4.298-2.576a.95.95 0 00.27-.645.95.95 0 00-.27-.644c-.353-.332-.955-.374-1.308 0a4.716 4.716 0 01-.664.624l-.104.083c-.104.083.083-.063.083-.063-.062.042-.125.104-.208.146-.145.104-.27.187-.415.27-.29.187-.602.353-.893.499-.166.083-.311.145-.477.228-.229.104.187-.062-.042.021l-.311.125c-.748.27-1.516.498-2.304.665-.416.083-.81.166-1.225.228-.125.021-.229.021-.353.042.29-.042-.042 0-.104.02l-.706.063c-.913.083-1.848.104-2.782.083-.477-.02-.976-.042-1.453-.083-.208-.02-.415-.042-.644-.062-.124 0-.249-.021-.394-.042.249.062.041 0-.02 0l-.188-.02a28.15 28.15 0 01-2.865-.603c-.477-.146-.955-.291-1.432-.458a22.954 22.954 0 01-.664-.249c-.104-.041-.208-.083-.291-.124.228.103.02 0-.02 0l-.188-.084a17.027 17.027 0 01-2.865-1.641c-.103-.083-.207-.146-.311-.229l-.166-.124-.104-.084c.104.084.104.084.041.021-.207-.166-.394-.332-.602-.498-.415-.375-.83-.77-1.204-1.185a.949.949 0 00-.643-.27.91.91 0 00-.644.27.95.95 0 00-.27.644c.021.27.104.52.27.686zM70.98 36.76c1.038 0 1.89-1.143 1.89-2.535 0-1.413-.852-2.536-1.89-2.536-1.038 0-1.89 1.143-1.89 2.535 0 1.393.852 2.536 1.89 2.536zM54.102 36.636c1.142 0 2.077-1.206 2.077-2.723 0-1.496-.935-2.722-2.077-2.722-1.141 0-2.076 1.206-2.076 2.723 0 1.516.935 2.722 2.076 2.722zM14.636 31.815v1.6c0 .27-.27.478-.643.52L1.12 35.057C.52 35.119 0 34.787 0 34.35v-3.47c0-.436.519-.748 1.121-.706l12.872 1.122c.352.041.643.27.643.52zM22.608 47.15v1.475a.655.655 0 01-.187.353.597.597 0 01-.373.146l-10.9 1.039c-.498.041-.955-.25-.955-.665v-3.22c0-.396.436-.707.955-.645l10.9 1.039c.124 0 .27.042.373.145.104.063.166.187.187.333zM19.225 18.537l-.063 1.497c-.02.124-.062.249-.166.332a.49.49 0 01-.332.145l-9.57.686a.665.665 0 01-.291-.02.499.499 0 01-.25-.146.65.65 0 01-.186-.229.664.664 0 01-.062-.29l.103-3.221c.021-.104.042-.187.084-.291.041-.083.124-.166.186-.229a.544.544 0 01.27-.125.686.686 0 01.29 0l9.489 1.372c.124.02.228.062.31.166a.464.464 0 01.188.353zM79.16 29.073c-1.723-2.12-4.152-3.491-7.64-4.281-14.719-3.387-24.954-.665-38.863 3.886l-.685-2.12c14.283-4.654 24.788-7.46 40.047-3.927 3.923.893 6.83 2.556 8.865 5.05l-1.724 1.392z"
            fill="#000" />
        <path
            d="M80.572 29.82L79.43 26.93c.374-.166 2.076-1.433 3.84-3.449 1.745-1.995 2.741-3.823 2.637-4.883-.02-.229-.083-.852-1.681-1.247-1.723-.415-11.419-1.932-21.26-2.348-16.4-.665-21.133 2.057-22.483 3.74l-.249.312c-1.89 2.348-5.377 6.712-6.54 9.226l-2.823-1.309c1.329-2.868 4.837-7.252 6.934-9.87l.25-.312c3.072-3.802 11.5-5.444 25.037-4.883 9.965.416 19.805 1.912 21.86 2.431 3.343.81 3.966 2.91 4.049 4.094.332 4.509-6.54 10.639-8.43 11.387zM127.969 27.036h-9.114c-.457 0-.914.187-1.225.52a1.733 1.733 0 00-.519 1.226v7.168c0 .458.187.915.519 1.226.332.333.768.52 1.225.52h8.532a9.853 9.853 0 01-4.546 3.45 9.843 9.843 0 01-5.689.332 9.848 9.848 0 01-6.643-13.673 9.808 9.808 0 013.778-4.28c1.661-1.019 3.571-1.538 5.502-1.455a9.76 9.76 0 015.398 1.85 3.467 3.467 0 002.013.643h8.99c.311 0 .602-.083.872-.228.27-.146.477-.374.643-.623.146-.27.229-.561.249-.852 0-.312-.062-.603-.207-.873a20.864 20.864 0 00-11.564-9.808 20.866 20.866 0 00-15.155.623 20.845 20.845 0 00-10.713 10.723 20.918 20.918 0 00-.622 15.168 20.873 20.873 0 009.799 11.574 20.83 20.83 0 0015.051 1.87 20.868 20.868 0 0012.332-8.81 20.931 20.931 0 003.114-14.857 1.625 1.625 0 00-.602-1.039 1.702 1.702 0 00-1.121-.416l-10.297.021zM152.299 11.658h-8.159c-.955 0-1.744.79-1.744 1.746v37.028c0 .956.789 1.746 1.744 1.746h8.159c.955 0 1.744-.79 1.744-1.746V13.404c0-.956-.789-1.746-1.744-1.746zM167.268 13.404v10.722c0 .457-.187.914-.519 1.226-.333.332-.769.52-1.225.52h-7.287c-.229 0-.457.04-.665.124a1.662 1.662 0 00-.56.374 1.662 1.662 0 00-.374.56 1.802 1.802 0 00-.124.666v8.27c0 .457.187.914.519 1.226.332.332.768.52 1.225.52h7.287c.456 0 .913.186 1.224.519.333.332.519.769.519 1.226V50.41c0 .458.187.915.519 1.226.333.333.769.52 1.225.52h8.159c.457 0 .914-.187 1.225-.52.332-.332.519-.768.519-1.226V13.404c0-.457-.187-.915-.519-1.226a1.73 1.73 0 00-1.225-.52h-8.159c-.456 0-.913.187-1.225.52-.373.311-.539.768-.539 1.226zM199.114 11.658h-15.736c-.457 0-.914.187-1.225.52a1.734 1.734 0 00-.519 1.226v7.23c0 .458.187.915.519 1.227.332.332.768.52 1.225.52h7.723a.912.912 0 00.519-.167.904.904 0 00.311-.457c1.059-3.72 3.342-7.273 7.391-9.268a.402.402 0 00.207-.207.473.473 0 00.042-.291.415.415 0 00-.166-.25.57.57 0 00-.291-.083zM246.449 11.658h-8.325c-.561 0-1.121.146-1.62.395-.498.27-.934.644-1.245 1.101l-7.35 10.64c-.02.02-.041.062-.083.062-.041.02-.062.02-.103 0a.272.272 0 01-.083-.063.158.158 0 01-.042-.104V13.404c0-.457-.187-.915-.519-1.226a1.73 1.73 0 00-1.225-.52h-17.273c-1.951 0-3.882.374-5.688 1.122a14.852 14.852 0 00-4.816 3.221 14.977 14.977 0 00-3.218 4.82 14.894 14.894 0 00-1.142 5.694v23.876c0 .457.187.914.519 1.226.332.332.768.52 1.225.52h7.577c.457 0 .914-.188 1.225-.52.332-.333.519-.77.519-1.226V26.287c0-1.04.415-2.057 1.163-2.785a3.928 3.928 0 012.782-1.163h6.332c.103 0 .228.02.332.062a.865.865 0 01.29.187.85.85 0 01.187.291.932.932 0 01.063.332v27.18c0 .228.041.457.124.665.083.207.208.394.374.56.166.167.353.292.56.375a1.8 1.8 0 00.665.124h8.159c.456 0 .913-.187 1.224-.52a1.73 1.73 0 00.52-1.225V40.084c0-.041.02-.083.041-.104a.297.297 0 01.083-.062c.042-.02.083 0 .104 0 .041.02.062.041.083.062l7.349 10.64c.332.456.748.851 1.246 1.1.498.27 1.059.395 1.619.395h8.325c.312 0 .623-.083.914-.249.269-.166.498-.395.643-.686.145-.29.229-.602.208-.914a1.783 1.783 0 00-.312-.893L237.169 33.83a3.526 3.526 0 01-.623-1.974c0-.707.207-1.393.623-1.974l10.691-15.543c.187-.27.291-.561.312-.894a1.73 1.73 0 00-.187-.914 1.705 1.705 0 00-.644-.686 2.535 2.535 0 00-.892-.187z"
            fill="#000" />
        <path
            d="M152.299 11.658h-8.159c-.955 0-1.744.79-1.744 1.746v37.028c0 .956.789 1.746 1.744 1.746h8.159c.955 0 1.744-.79 1.744-1.746V13.404c0-.956-.789-1.746-1.744-1.746z"
            fill="#000" />
    </g>
    <defs>
        <clipPath id="prefix__clip0_91_19735">
            <path fill="#fff" transform="translate(0 .002)" d="M0 0h248.296v64H0z" />
        </clipPath>
    </defs>
</svg>